<svg width="85" height="85" viewBox="0 0 85 85" fill="none" xmlns="http://www.w3.org/2000/svg">
<rect y="85" width="85" height="85" rx="42.5" transform="rotate(-90 0 85)" fill="#063F1E"/>
<path d="M57.6592 54.4541C55.6084 56.5049 53.4437 57.9062 51.165 58.6582C48.9092 59.4102 46.4596 59.7861 43.8164 59.7861C41.1504 59.7861 38.7236 59.3874 36.5361 58.5898C34.3714 57.7923 32.5257 56.6758 30.999 55.2402C29.4951 53.7819 28.333 52.0273 27.5127 49.9766C26.7152 47.9258 26.3164 45.6357 26.3164 43.1064C26.3164 40.6911 26.7152 38.458 27.5127 36.4072C28.333 34.3337 29.4268 32.5677 30.7939 31.1094C32.1839 29.6283 33.8132 28.4775 35.6816 27.6572C37.5501 26.8141 39.5326 26.3926 41.6289 26.3926C43.8164 26.3926 45.7191 26.8483 47.3369 27.7598C48.9548 28.6712 50.1283 30.0042 50.8574 31.7588V27.1445H57.1807V41.9785H50.8574C50.8574 39.1758 50.0827 36.9427 48.5332 35.2793C47.0065 33.5931 45.0127 32.75 42.5518 32.75C41.5719 32.75 40.5352 32.9551 39.4414 33.3652C38.3704 33.7526 37.3792 34.3678 36.4678 35.2109C35.5791 36.054 34.8385 37.125 34.2461 38.4238C33.6536 39.7227 33.3574 41.2835 33.3574 43.1064C33.3574 44.8838 33.6423 46.4219 34.2119 47.7207C34.7816 48.9967 35.5221 50.0563 36.4336 50.8994C37.3678 51.7197 38.4616 52.3464 39.7148 52.7793C40.9909 53.1895 42.3011 53.3945 43.6455 53.3945C45.9469 53.3945 47.9408 53.0413 49.627 52.335C51.3359 51.6058 52.8057 50.6488 54.0361 49.4639L57.6592 54.4541Z" fill="white"/>
</svg>
